<svg
  version="1.1"
  xmlns="http://www.w3.org/2000/svg"
  viewBox="0 0 64 64"
  fill="#fec36f"
  width="64px"
  height="64px">
  <path 
    d="M64,32 L63.991,33.1 L63.965,34.065 L63.921,34.984 L63.86,35.874 L63.781,36.741 L63.685,37.59 L63.571,38.424 L63.441,39.243 L63.292,40.049 L63.127,40.843 L62.944,41.624 L62.745,42.395 L62.528,43.154 L62.295,43.901 L62.045,44.638 L61.778,45.363 L61.494,46.078 L61.194,46.78 L60.878,47.472 L60.546,48.152 L60.197,48.82 L59.833,49.477 L59.453,50.122 L59.057,50.754 L58.646,51.374 L58.22,51.982 L57.778,52.576 L57.322,53.158 L56.851,53.727 L56.366,54.282 L55.866,54.824 L55.352,55.352 L54.824,55.866 L54.282,56.366 L53.727,56.851 L53.158,57.322 L52.576,57.778 L51.982,58.22 L51.374,58.646 L50.754,59.057 L50.122,59.453 L49.477,59.833 L48.82,60.197 L48.152,60.546 L47.472,60.878 L46.78,61.194 L46.078,61.494 L45.363,61.778 L44.638,62.045 L43.901,62.295 L43.154,62.528 L42.395,62.745 L41.624,62.944 L40.843,63.127 L40.049,63.292 L39.243,63.441 L38.424,63.571 L37.59,63.685 L36.741,63.781 L35.874,63.86 L34.984,63.921 L34.065,63.965 L33.1,63.991 L32,64 L30.9,63.991 L29.935,63.965 L29.016,63.921 L28.126,63.86 L27.259,63.781 L26.41,63.685 L25.576,63.571 L24.757,63.441 L23.951,63.292 L23.157,63.127 L22.376,62.944 L21.605,62.745 L20.846,62.528 L20.099,62.295 L19.362,62.045 L18.637,61.778 L17.922,61.494 L17.22,61.194 L16.528,60.878 L15.848,60.546 L15.18,60.197 L14.523,59.833 L13.878,59.453 L13.246,59.057 L12.626,58.646 L12.018,58.22 L11.424,57.778 L10.842,57.322 L10.273,56.851 L9.718,56.366 L9.176,55.866 L8.648,55.352 L8.134,54.824 L7.634,54.282 L7.149,53.727 L6.678,53.158 L6.222,52.576 L5.78,51.982 L5.354,51.374 L4.943,50.754 L4.547,50.122 L4.167,49.477 L3.803,48.82 L3.454,48.152 L3.122,47.472 L2.806,46.78 L2.506,46.078 L2.222,45.363 L1.955,44.638 L1.705,43.901 L1.472,43.154 L1.255,42.395 L1.056,41.624 L0.873,40.843 L0.708,40.049 L0.559,39.243 L0.429,38.424 L0.315,37.59 L0.219,36.741 L0.14,35.874 L0.079,34.984 L0.035,34.065 L0.009,33.1 L0,32 L0.009,30.9 L0.035,29.935 L0.079,29.016 L0.14,28.126 L0.219,27.259 L0.315,26.41 L0.429,25.576 L0.559,24.757 L0.708,23.951 L0.873,23.157 L1.056,22.376 L1.255,21.605 L1.472,20.846 L1.705,20.099 L1.955,19.362 L2.222,18.637 L2.506,17.922 L2.806,17.22 L3.122,16.528 L3.454,15.848 L3.803,15.18 L4.167,14.523 L4.547,13.878 L4.943,13.246 L5.354,12.626 L5.78,12.018 L6.222,11.424 L6.678,10.842 L7.149,10.273 L7.634,9.718 L8.134,9.176 L8.648,8.648 L9.176,8.134 L9.718,7.634 L10.273,7.149 L10.842,6.678 L11.424,6.222 L12.018,5.78 L12.626,5.354 L13.246,4.943 L13.878,4.547 L14.523,4.167 L15.18,3.803 L15.848,3.454 L16.528,3.122 L17.22,2.806 L17.922,2.506 L18.637,2.222 L19.362,1.955 L20.099,1.705 L20.846,1.472 L21.605,1.255 L22.376,1.056 L23.157,0.873 L23.951,0.708 L24.757,0.559 L25.576,0.429 L26.41,0.315 L27.259,0.219 L28.126,0.14 L29.016,0.079 L29.935,0.035 L30.9,0.009 L32,0 L33.1,0.009 L34.065,0.035 L34.984,0.079 L35.874,0.14 L36.741,0.219 L37.59,0.315 L38.424,0.429 L39.243,0.559 L40.049,0.708 L40.843,0.873 L41.624,1.056 L42.395,1.255 L43.154,1.472 L43.901,1.705 L44.638,1.955 L45.363,2.222 L46.078,2.506 L46.78,2.806 L47.472,3.122 L48.152,3.454 L48.82,3.803 L49.477,4.167 L50.122,4.547 L50.754,4.943 L51.374,5.354 L51.982,5.78 L52.576,6.222 L53.158,6.678 L53.727,7.149 L54.282,7.634 L54.824,8.134 L55.352,8.648 L55.866,9.176 L56.366,9.718 L56.851,10.273 L57.322,10.842 L57.778,11.424 L58.22,12.018 L58.646,12.626 L59.057,13.246 L59.453,13.878 L59.833,14.523 L60.197,15.18 L60.546,15.848 L60.878,16.528 L61.194,17.22 L61.494,17.922 L61.778,18.637 L62.045,19.362 L62.295,20.099 L62.528,20.846 L62.745,21.605 L62.944,22.376 L63.127,23.157 L63.292,23.951 L63.441,24.757 L63.571,25.576 L63.685,26.41 L63.781,27.259 L63.86,28.126 L63.921,29.016 L63.965,29.935 L63.991,30.9 L64,32 Z"
    width="64px"
    height="64px" />
</svg>